<svg height="2430" width="720" xmlns="http://www.w3.org/2000/svg">
<rect height="2430" fill="#555" width="720"></rect>
<text fill="#7f7" font-family="Courier New" font-size="12" xml:space="preserve">
<tspan x="10" y="26">npm install - 132 megabytes</tspan>

<tspan x="10" y="42"></tspan>

<tspan x="10" y="58">node_modules</tspan>

<tspan x="10" y="74">└─┬ electron@2.0.2</tspan>

<tspan x="10" y="90">  ├── @types/node@8.10.18</tspan>

<tspan x="10" y="106">  ├─┬ electron-download@3.3.0</tspan>

<tspan x="10" y="122">  │ ├─┬ debug@2.6.9</tspan>

<tspan x="10" y="138">  │ │ └── ms@2.0.0</tspan>

<tspan x="10" y="154">  │ ├─┬ fs-extra@0.30.0</tspan>

<tspan x="10" y="170">  │ │ ├── graceful-fs@4.1.11</tspan>

<tspan x="10" y="186">  │ │ ├── jsonfile@2.4.0</tspan>

<tspan x="10" y="202">  │ │ ├── klaw@1.3.1</tspan>

<tspan x="10" y="218">  │ │ ├── path-is-absolute@1.0.1</tspan>

<tspan x="10" y="234">  │ │ └─┬ rimraf@2.6.2</tspan>

<tspan x="10" y="250">  │ │   └─┬ glob@7.1.2</tspan>

<tspan x="10" y="266">  │ │     ├── fs.realpath@1.0.0</tspan>

<tspan x="10" y="282">  │ │     ├─┬ inflight@1.0.6</tspan>

<tspan x="10" y="298">  │ │     │ └── wrappy@1.0.2</tspan>

<tspan x="10" y="314">  │ │     ├─┬ minimatch@3.0.4</tspan>

<tspan x="10" y="330">  │ │     │ └─┬ brace-expansion@1.1.11</tspan>

<tspan x="10" y="346">  │ │     │   ├── balanced-match@1.0.0</tspan>

<tspan x="10" y="362">  │ │     │   └── concat-map@0.0.1</tspan>

<tspan x="10" y="378">  │ │     └── once@1.4.0</tspan>

<tspan x="10" y="394">  │ ├── home-path@1.0.6</tspan>

<tspan x="10" y="410">  │ ├── minimist@1.2.0</tspan>

<tspan x="10" y="426">  │ ├─┬ nugget@2.0.1</tspan>

<tspan x="10" y="442">  │ │ ├─┬ pretty-bytes@1.0.4</tspan>

<tspan x="10" y="458">  │ │ │ ├── get-stdin@4.0.1</tspan>

<tspan x="10" y="474">  │ │ │ └─┬ meow@3.7.0</tspan>

<tspan x="10" y="490">  │ │ │   ├─┬ camelcase-keys@2.1.0</tspan>

<tspan x="10" y="506">  │ │ │   │ └── camelcase@2.1.1</tspan>

<tspan x="10" y="522">  │ │ │   ├── decamelize@1.2.0</tspan>

<tspan x="10" y="538">  │ │ │   ├─┬ loud-rejection@1.6.0</tspan>

<tspan x="10" y="554">  │ │ │   │ ├─┬ currently-unhandled@0.4.1</tspan>

<tspan x="10" y="570">  │ │ │   │ │ └── array-find-index@1.0.2</tspan>

<tspan x="10" y="586">  │ │ │   │ └── signal-exit@3.0.2</tspan>

<tspan x="10" y="602">  │ │ │   ├── map-obj@1.0.1</tspan>

<tspan x="10" y="618">  │ │ │   ├─┬ normalize-package-data@2.4.0</tspan>

<tspan x="10" y="634">  │ │ │   │ ├── hosted-git-info@2.6.0</tspan>

<tspan x="10" y="650">  │ │ │   │ ├─┬ is-builtin-module@1.0.0</tspan>

<tspan x="10" y="666">  │ │ │   │ │ └── builtin-modules@1.1.1</tspan>

<tspan x="10" y="682">  │ │ │   │ └─┬ validate-npm-package-license@3.0.3</tspan>

<tspan x="10" y="698">  │ │ │   │   ├─┬ spdx-correct@3.0.0</tspan>

<tspan x="10" y="714">  │ │ │   │   │ └── spdx-license-ids@3.0.0</tspan>

<tspan x="10" y="730">  │ │ │   │   └─┬ spdx-expression-parse@3.0.0</tspan>

<tspan x="10" y="746">  │ │ │   │     └── spdx-exceptions@2.1.0</tspan>

<tspan x="10" y="762">  │ │ │   ├── object-assign@4.1.1</tspan>

<tspan x="10" y="778">  │ │ │   ├─┬ read-pkg-up@1.0.1</tspan>

<tspan x="10" y="794">  │ │ │   │ ├── find-up@1.1.2</tspan>

<tspan x="10" y="810">  │ │ │   │ └─┬ read-pkg@1.1.0</tspan>

<tspan x="10" y="826">  │ │ │   │   ├─┬ load-json-file@1.1.0</tspan>

<tspan x="10" y="842">  │ │ │   │   │ ├─┬ parse-json@2.2.0</tspan>

<tspan x="10" y="858">  │ │ │   │   │ │ └─┬ error-ex@1.3.1</tspan>

<tspan x="10" y="874">  │ │ │   │   │ │   └── is-arrayish@0.2.1</tspan>

<tspan x="10" y="890">  │ │ │   │   │ ├── pify@2.3.0</tspan>

<tspan x="10" y="906">  │ │ │   │   │ └─┬ strip-bom@2.0.0</tspan>

<tspan x="10" y="922">  │ │ │   │   │   └── is-utf8@0.2.1</tspan>

<tspan x="10" y="938">  │ │ │   │   └── path-type@1.1.0</tspan>

<tspan x="10" y="954">  │ │ │   ├─┬ redent@1.0.0</tspan>

<tspan x="10" y="970">  │ │ │   │ ├─┬ indent-string@2.1.0</tspan>

<tspan x="10" y="986">  │ │ │   │ │ └─┬ repeating@2.0.1</tspan>

<tspan x="10" y="1002">  │ │ │   │ │   └── is-finite@1.0.2</tspan>

<tspan x="10" y="1018">  │ │ │   │ └── strip-indent@1.0.1</tspan>

<tspan x="10" y="1034">  │ │ │   └── trim-newlines@1.0.0</tspan>

<tspan x="10" y="1050">  │ │ ├─┬ progress-stream@1.2.0</tspan>

<tspan x="10" y="1066">  │ │ │ ├── speedometer@0.1.4</tspan>

<tspan x="10" y="1082">  │ │ │ └─┬ through2@0.2.3</tspan>

<tspan x="10" y="1098">  │ │ │   ├─┬ readable-stream@1.1.14</tspan>

<tspan x="10" y="1114">  │ │ │   │ ├── isarray@0.0.1</tspan>

<tspan x="10" y="1130">  │ │ │   │ └── string_decoder@0.10.31</tspan>

<tspan x="10" y="1146">  │ │ │   └─┬ xtend@2.1.2</tspan>

<tspan x="10" y="1162">  │ │ │     └── object-keys@0.4.0</tspan>

<tspan x="10" y="1178">  │ │ ├─┬ request@2.87.0</tspan>

<tspan x="10" y="1194">  │ │ │ ├── aws-sign2@0.7.0</tspan>

<tspan x="10" y="1210">  │ │ │ ├── aws4@1.7.0</tspan>

<tspan x="10" y="1226">  │ │ │ ├── caseless@0.12.0</tspan>

<tspan x="10" y="1242">  │ │ │ ├─┬ combined-stream@1.0.6</tspan>

<tspan x="10" y="1258">  │ │ │ │ └── delayed-stream@1.0.0</tspan>

<tspan x="10" y="1274">  │ │ │ ├── extend@3.0.1</tspan>

<tspan x="10" y="1290">  │ │ │ ├── forever-agent@0.6.1</tspan>

<tspan x="10" y="1306">  │ │ │ ├─┬ form-data@2.3.2</tspan>

<tspan x="10" y="1322">  │ │ │ │ └── asynckit@0.4.0</tspan>

<tspan x="10" y="1338">  │ │ │ ├─┬ har-validator@5.0.3</tspan>

<tspan x="10" y="1354">  │ │ │ │ ├─┬ ajv@5.5.2</tspan>

<tspan x="10" y="1370">  │ │ │ │ │ ├── co@4.6.0</tspan>

<tspan x="10" y="1386">  │ │ │ │ │ ├── fast-deep-equal@1.1.0</tspan>

<tspan x="10" y="1402">  │ │ │ │ │ ├── fast-json-stable-stringify@2.0.0</tspan>

<tspan x="10" y="1418">  │ │ │ │ │ └── json-schema-traverse@0.3.1</tspan>

<tspan x="10" y="1434">  │ │ │ │ └── har-schema@2.0.0</tspan>

<tspan x="10" y="1450">  │ │ │ ├─┬ http-signature@1.2.0</tspan>

<tspan x="10" y="1466">  │ │ │ │ ├── assert-plus@1.0.0</tspan>

<tspan x="10" y="1482">  │ │ │ │ ├─┬ jsprim@1.4.1</tspan>

<tspan x="10" y="1498">  │ │ │ │ │ ├── extsprintf@1.3.0</tspan>

<tspan x="10" y="1514">  │ │ │ │ │ ├── json-schema@0.2.3</tspan>

<tspan x="10" y="1530">  │ │ │ │ │ └── verror@1.10.0</tspan>

<tspan x="10" y="1546">  │ │ │ │ └─┬ sshpk@1.14.1</tspan>

<tspan x="10" y="1562">  │ │ │ │   ├── asn1@0.2.3</tspan>

<tspan x="10" y="1578">  │ │ │ │   ├── bcrypt-pbkdf@1.0.1</tspan>

<tspan x="10" y="1594">  │ │ │ │   ├── dashdash@1.14.1</tspan>

<tspan x="10" y="1610">  │ │ │ │   ├── ecc-jsbn@0.1.1</tspan>

<tspan x="10" y="1626">  │ │ │ │   ├── getpass@0.1.7</tspan>

<tspan x="10" y="1642">  │ │ │ │   ├── jsbn@0.1.1</tspan>

<tspan x="10" y="1658">  │ │ │ │   └── tweetnacl@0.14.5</tspan>

<tspan x="10" y="1674">  │ │ │ ├── is-typedarray@1.0.0</tspan>

<tspan x="10" y="1690">  │ │ │ ├── isstream@0.1.2</tspan>

<tspan x="10" y="1706">  │ │ │ ├── json-stringify-safe@5.0.1</tspan>

<tspan x="10" y="1722">  │ │ │ ├─┬ mime-types@2.1.18</tspan>

<tspan x="10" y="1738">  │ │ │ │ └── mime-db@1.33.0</tspan>

<tspan x="10" y="1754">  │ │ │ ├── oauth-sign@0.8.2</tspan>

<tspan x="10" y="1770">  │ │ │ ├── performance-now@2.1.0</tspan>

<tspan x="10" y="1786">  │ │ │ ├── qs@6.5.2</tspan>

<tspan x="10" y="1802">  │ │ │ ├── safe-buffer@5.1.2</tspan>

<tspan x="10" y="1818">  │ │ │ ├─┬ tough-cookie@2.3.4</tspan>

<tspan x="10" y="1834">  │ │ │ │ └── punycode@1.4.1</tspan>

<tspan x="10" y="1850">  │ │ │ ├── tunnel-agent@0.6.0</tspan>

<tspan x="10" y="1866">  │ │ │ └── uuid@3.2.1</tspan>

<tspan x="10" y="1882">  │ │ ├─┬ single-line-log@1.1.2</tspan>

<tspan x="10" y="1898">  │ │ │ └─┬ string-width@1.0.2</tspan>

<tspan x="10" y="1914">  │ │ │   ├── code-point-at@1.1.0</tspan>

<tspan x="10" y="1930">  │ │ │   ├─┬ is-fullwidth-code-point@1.0.0</tspan>

<tspan x="10" y="1946">  │ │ │   │ └── number-is-nan@1.0.1</tspan>

<tspan x="10" y="1962">  │ │ │   └─┬ strip-ansi@3.0.1</tspan>

<tspan x="10" y="1978">  │ │ │     └── ansi-regex@2.1.1</tspan>

<tspan x="10" y="1994">  │ │ └── throttleit@0.0.2</tspan>

<tspan x="10" y="2010">  │ ├─┬ path-exists@2.1.0</tspan>

<tspan x="10" y="2026">  │ │ └─┬ pinkie-promise@2.0.1</tspan>

<tspan x="10" y="2042">  │ │   └── pinkie@2.0.4</tspan>

<tspan x="10" y="2058">  │ ├─┬ rc@1.2.8</tspan>

<tspan x="10" y="2074">  │ │ ├── deep-extend@0.6.0</tspan>

<tspan x="10" y="2090">  │ │ ├── ini@1.3.5</tspan>

<tspan x="10" y="2106">  │ │ └── strip-json-comments@2.0.1</tspan>

<tspan x="10" y="2122">  │ ├── semver@5.5.0</tspan>

<tspan x="10" y="2138">  │ └─┬ sumchecker@1.3.1</tspan>

<tspan x="10" y="2154">  │   └── es6-promise@4.2.4</tspan>

<tspan x="10" y="2170">  └─┬ extract-zip@1.6.7</tspan>

<tspan x="10" y="2186">    ├─┬ concat-stream@1.6.2</tspan>

<tspan x="10" y="2202">    │ ├── buffer-from@1.1.0</tspan>

<tspan x="10" y="2218">    │ ├── inherits@2.0.3</tspan>

<tspan x="10" y="2234">    │ ├─┬ readable-stream@2.3.6</tspan>

<tspan x="10" y="2250">    │ │ ├── core-util-is@1.0.2</tspan>

<tspan x="10" y="2266">    │ │ ├── isarray@1.0.0</tspan>

<tspan x="10" y="2282">    │ │ ├── process-nextick-args@2.0.0</tspan>

<tspan x="10" y="2298">    │ │ ├── string_decoder@1.1.1</tspan>

<tspan x="10" y="2314">    │ │ └── util-deprecate@1.0.2</tspan>

<tspan x="10" y="2330">    │ └── typedarray@0.0.6</tspan>

<tspan x="10" y="2346">    ├─┬ mkdirp@0.5.1</tspan>

<tspan x="10" y="2362">    │ └── minimist@0.0.8</tspan>

<tspan x="10" y="2378">    └─┬ yauzl@2.4.1</tspan>

<tspan x="10" y="2394">      └─┬ fd-slicer@1.0.1</tspan>

<tspan x="10" y="2410">        └── pend@1.2.0</tspan>

</text>
</svg>
