<svg height="2286" width="720" xmlns="http://www.w3.org/2000/svg">
<rect height="2286" fill="#555" width="720"></rect>
<text fill="#7f7" font-family="Courier New" font-size="12" xml:space="preserve">
<tspan x="10" y="26"></tspan>
<tspan x="10" y="42">&gt; npmdoc-electron@0.0.1 test /home/travis/build/npmdoc/node-npmdoc-electron</tspan>
<tspan x="10" y="58">&gt; (set -e; export PORT=$(utility2 shServerPortRandom); utility2 test test.js)</tspan>
<tspan x="10" y="74"></tspan>
<tspan x="10" y="90"></tspan>
<tspan x="10" y="106">[MODE_BUILD=npmTest] - 2017-03-30T15:11:13Z - npm-testing /home/travis/build/npmdoc/node-npmdoc-\</tspan>
<tspan x="10" y="122">electron</tspan>
<tspan x="10" y="138"></tspan>
<tspan x="10" y="154"></tspan>
<tspan x="10" y="170">covering $ /home/travis/.nvm/versions/node/v6.10.1/bin/node /home/travis/build/npmdoc/node-npmdo\</tspan>
<tspan x="10" y="186">c-electron/test.js</tspan>
<tspan x="10" y="202">merging file:///home/travis/build/npmdoc/node-npmdoc-electron/tmp/build/test-report.json to test\</tspan>
<tspan x="10" y="218">-report</tspan>
<tspan x="10" y="234">&gt; server listening on http-port 47604</tspan>
<tspan x="10" y="250">created apidoc file:///home/travis/build/npmdoc/node-npmdoc-electron/tmp/build/apidoc.html</tspan>
<tspan x="10" y="266"></tspan>
<tspan x="10" y="282"></tspan>
<tspan x="10" y="298">browserTest - created electron entry-page /home/travis/build/npmdoc/node-npmdoc-electron/tmp/ele\</tspan>
<tspan x="10" y="314">ctron.15b1fc544d00.cc8cc9a3be5eb.html</tspan>
<tspan x="10" y="330"></tspan>
<tspan x="10" y="346">[node test-case 1 of 6 passed] - testCase_buildLib_default</tspan>
<tspan x="10" y="362">[node test-case 2 of 6 passed] - testCase_buildReadme_default</tspan>
<tspan x="10" y="378">[node test-case 3 of 6 passed] - testCase_buildTest_default</tspan>
<tspan x="10" y="394"></tspan>
<tspan x="10" y="410">browserTest - created electron entry-page /home/travis/build/npmdoc/node-npmdoc-electron/tmp/ele\</tspan>
<tspan x="10" y="426">ctron.15b1fc545150.68bc563563259.html</tspan>
<tspan x="10" y="442"></tspan>
<tspan x="10" y="458">Xlib:  extension "RANDR" missing on display ":99.0".</tspan>
<tspan x="10" y="474">Xlib:  extension "RANDR" missing on display ":99.0".</tspan>
<tspan x="10" y="490">&gt; server listening on http-port 52926</tspan>
<tspan x="10" y="506">merging file:///home/travis/build/npmdoc/node-npmdoc-electron/tmp/build/test-report.json to test\</tspan>
<tspan x="10" y="522">-report</tspan>
<tspan x="10" y="538">Xlib:  extension "RANDR" missing on display ":99.0".</tspan>
<tspan x="10" y="554">[4962:0330/151114.682726:WARNING:audio_manager.cc(317)] Multiple instances of AudioManager detec\</tspan>
<tspan x="10" y="570">ted</tspan>
<tspan x="10" y="586">[4962:0330/151114.682960:WARNING:audio_manager.cc(278)] Multiple instances of AudioManager detec\</tspan>
<tspan x="10" y="602">ted</tspan>
<tspan x="10" y="618">merging file:///home/travis/build/npmdoc/node-npmdoc-electron/tmp/build/test-report.json to test\</tspan>
<tspan x="10" y="634">-report</tspan>
<tspan x="10" y="650">Xlib:  extension "RANDR" missing on display ":99.0".</tspan>
<tspan x="10" y="666">[5003:0330/151114.793544:ERROR:sandbox_linux.cc(343)] InitializeSandbox() called with multiple t\</tspan>
<tspan x="10" y="682">hreads in process gpu-process. </tspan>
<tspan x="10" y="698">[4966:0330/151114.798082:WARNING:audio_manager.cc(317)] Multiple instances of AudioManager detec\</tspan>
<tspan x="10" y="714">ted</tspan>
<tspan x="10" y="730">[4966:0330/151114.798186:WARNING:audio_manager.cc(278)] Multiple instances of AudioManager detec\</tspan>
<tspan x="10" y="746">ted</tspan>
<tspan x="10" y="762">[4962:0330/151114.820152:ERROR:browser_gpu_channel_host_factory.cc(125)] Failed to create channe\</tspan>
<tspan x="10" y="778">l.</tspan>
<tspan x="10" y="794">[4962:0330/151114.820470:ERROR:browser_gpu_channel_host_factory.cc(125)] Failed to create channe\</tspan>
<tspan x="10" y="810">l.</tspan>
<tspan x="10" y="826">[4962:0330/151114.821262:ERROR:browser_gpu_channel_host_factory.cc(125)] Failed to create channe\</tspan>
<tspan x="10" y="842">l.</tspan>
<tspan x="10" y="858">[4962:0330/151114.822022:ERROR:browser_gpu_channel_host_factory.cc(125)] Failed to create channe\</tspan>
<tspan x="10" y="874">l.</tspan>
<tspan x="10" y="890">[4962:0330/151114.824833:ERROR:browser_gpu_channel_host_factory.cc(125)] Failed to create channe\</tspan>
<tspan x="10" y="906">l.</tspan>
<tspan x="10" y="922">[5028:0330/151114.894336:ERROR:sandbox_linux.cc(343)] InitializeSandbox() called with multiple t\</tspan>
<tspan x="10" y="938">hreads in process gpu-process. </tspan>
<tspan x="10" y="954">[4966:0330/151114.953868:ERROR:browser_gpu_channel_host_factory.cc(125)] Failed to create channe\</tspan>
<tspan x="10" y="970">l.</tspan>
<tspan x="10" y="986">[4966:0330/151114.958278:ERROR:browser_gpu_channel_host_factory.cc(125)] Failed to create channe\</tspan>
<tspan x="10" y="1002">l.</tspan>
<tspan x="10" y="1018">[4966:0330/151114.958639:ERROR:browser_gpu_channel_host_factory.cc(125)] Failed to create channe\</tspan>
<tspan x="10" y="1034">l.</tspan>
<tspan x="10" y="1050">[4966:0330/151114.958890:ERROR:browser_gpu_channel_host_factory.cc(125)] Failed to create channe\</tspan>
<tspan x="10" y="1066">l.</tspan>
<tspan x="10" y="1082">[4966:0330/151114.959265:ERROR:browser_gpu_channel_host_factory.cc(125)] Failed to create channe\</tspan>
<tspan x="10" y="1098">l.</tspan>
<tspan x="10" y="1114"></tspan>
<tspan x="10" y="1130">browserTest - opened url /home/travis/build/npmdoc/node-npmdoc-electron/tmp/build/apidoc.html</tspan>
<tspan x="10" y="1146"></tspan>
<tspan x="10" y="1162"></tspan>
<tspan x="10" y="1178">browserTest - opened url http://127.0.0.1:47604?modeTest=1</tspan>
<tspan x="10" y="1194"></tspan>
<tspan x="10" y="1210">[4966:0330/151116.666561:INFO:CONSOLE(206)] "----------|-----------|-----------|-----------|----\</tspan>
<tspan x="10" y="1226">-------|</tspan>
<tspan x="10" y="1242">File      |   % Stmts |% Branches |   % Funcs |   % Lines |</tspan>
<tspan x="10" y="1258">----------|-----------|-----------|-----------|-----------|</tspan>
<tspan x="10" y="1274">----------|-----------|-----------|-----------|-----------|</tspan>
<tspan x="10" y="1290">All files |       100 |       100 |       100 |       100 |</tspan>
<tspan x="10" y="1306">----------|-----------|-----------|-----------|-----------|</tspan>
<tspan x="10" y="1322">", source: file:///home/travis/build/npmdoc/node-npmdoc-electron/tmp/electron.15b1fc545150.68bc5\</tspan>
<tspan x="10" y="1338">63563259.html (206)</tspan>
<tspan x="10" y="1354">[4966:0330/151116.672450:INFO:CONSOLE(206)] "created coverage file:///tmp/build/coverage.html/in\</tspan>
<tspan x="10" y="1370">dex.html", source: file:///home/travis/build/npmdoc/node-npmdoc-electron/tmp/electron.15b1fc5451\</tspan>
<tspan x="10" y="1386">50.68bc563563259.html (206)</tspan>
<tspan x="10" y="1402">[node test-case 4 of 6 passed] - testCase_buildApp_default</tspan>
<tspan x="10" y="1418"></tspan>
<tspan x="10" y="1434">browserTest - created screen-capture file:///home/travis/build/npmdoc/node-npmdoc-electron/tmp/b\</tspan>
<tspan x="10" y="1450">uild/screen-capture.npmTest.browser._2Fhome_2Ftravis_2Fbuild_2Fnpmdoc_2Fnode-npmdoc-electron_2Ft\</tspan>
<tspan x="10" y="1466">mp_2Fbuild_2Fapidoc.html.png</tspan>
<tspan x="10" y="1482"></tspan>
<tspan x="10" y="1498"></tspan>
<tspan x="10" y="1514">browserTest - exit-code 0 - /home/travis/build/npmdoc/node-npmdoc-electron/tmp/build/apidoc.html</tspan>
<tspan x="10" y="1530"></tspan>
<tspan x="10" y="1546">[node test-case 5 of 6 passed] - testCase_buildApidoc_default</tspan>
<tspan x="10" y="1562"></tspan>
<tspan x="10" y="1578">browserTest - created screen-capture file:///home/travis/build/npmdoc/node-npmdoc-electron/tmp/b\</tspan>
<tspan x="10" y="1594">uild/screen-capture.npmTest.browser..png</tspan>
<tspan x="10" y="1610"></tspan>
<tspan x="10" y="1626"></tspan>
<tspan x="10" y="1642">browserTest - exit-code 0 - http://127.0.0.1:47604?modeTest=1</tspan>
<tspan x="10" y="1658"></tspan>
<tspan x="10" y="1674"></tspan>
<tspan x="10" y="1690">browserTest - merged coverage from /home/travis/build/npmdoc/node-npmdoc-electron/tmp/coverage.n\</tspan>
<tspan x="10" y="1706">pmTest.browser.%2F.json</tspan>
<tspan x="10" y="1722"></tspan>
<tspan x="10" y="1738"></tspan>
<tspan x="10" y="1754">browserTest - merging test-report from /home/travis/build/npmdoc/node-npmdoc-electron/tmp/test-r\</tspan>
<tspan x="10" y="1770">eport.npmTest.browser.%2F.json</tspan>
<tspan x="10" y="1786"></tspan>
<tspan x="10" y="1802">[node test-case 6 of 6 passed] - testCase_webpage_default</tspan>
<tspan x="10" y="1818">-----------------------------|-----------|-----------|-----------|-----------|</tspan>
<tspan x="10" y="1834">File                         |   % Stmts |% Branches |   % Funcs |   % Lines |</tspan>
<tspan x="10" y="1850">-----------------------------|-----------|-----------|-----------|-----------|</tspan>
<tspan x="10" y="1866">   node-npmdoc-electron/     |       100 |       100 |       100 |       100 |</tspan>
<tspan x="10" y="1882">      example.js             |       100 |       100 |       100 |       100 |</tspan>
<tspan x="10" y="1898">      lib.npmdoc_electron.js |       100 |       100 |       100 |       100 |</tspan>
<tspan x="10" y="1914">      test.js                |       100 |       100 |       100 |       100 |</tspan>
<tspan x="10" y="1930">-----------------------------|-----------|-----------|-----------|-----------|</tspan>
<tspan x="10" y="1946">All files                    |       100 |       100 |       100 |       100 |</tspan>
<tspan x="10" y="1962">-----------------------------|-----------|-----------|-----------|-----------|</tspan>
<tspan x="10" y="1978"></tspan>
<tspan x="10" y="1994">created coverage file:///home/travis/build/npmdoc/node-npmdoc-electron/tmp/build/coverage.html/i\</tspan>
<tspan x="10" y="2010">ndex.html</tspan>
<tspan x="10" y="2026">merging file:///home/travis/build/npmdoc/node-npmdoc-electron/tmp/build/test-report.json to test\</tspan>
<tspan x="10" y="2042">-report</tspan>
<tspan x="10" y="2058"></tspan>
<tspan x="10" y="2074">-------------------------------------------------------</tspan>
<tspan x="10" y="2090">| test-report - buildNpmdoc - node - linux v6.10.1 - 2017-03-30T15:11:02.924Z</tspan>
<tspan x="10" y="2106">|   16088 ms            0 failed        6 passed      |</tspan>
<tspan x="10" y="2122">-------------------------------------------------------</tspan>
<tspan x="10" y="2138"></tspan>
<tspan x="10" y="2154">created test-report file:///home/travis/build/npmdoc/node-npmdoc-electron/tmp/build/test-report.\</tspan>
<tspan x="10" y="2170">html</tspan>
<tspan x="10" y="2186"></tspan>
<tspan x="10" y="2202"></tspan>
<tspan x="10" y="2218">npmTest - 0 failed tests</tspan>
<tspan x="10" y="2234"></tspan>
<tspan x="10" y="2250"></tspan>
<tspan x="10" y="2266">[MODE_BUILD=npmTest] - 2017-03-30T15:11:21Z - EXIT_CODE - 0</tspan>
</text>
</svg>
